<svg width="336" height="330" viewBox="0 0 336 330" fill="none" xmlns="http://www.w3.org/2000/svg">
<g filter="url(#filter0_d_9_37)">
<path d="M4 49C4 21.9381 24.3844 0 49.5297 0H286.47C311.616 0 332 21.938 332 49V273C332 300.062 311.616 322 286.47 322H49.5298C24.3844 322 4 300.062 4 273V49Z" fill="black"/>
</g>
<g filter="url(#filter1_d_9_37)">
<path fill-rule="evenodd" clip-rule="evenodd" d="M14.8035 304.692C10.1973 298.851 6.84037 291.834 5.17706 284.118C9.17962 267.993 14.0297 248.499 19.7273 225.636C38.8788 148.788 49.0606 108.667 50.2727 105.273C55.6061 88.7879 62.5152 74.3636 71 62C79.4849 49.6364 87.4849 40.6667 95 35.0909C108.576 23.697 123.121 18 138.636 18H139.364C154.394 18 166.758 22.6061 176.455 31.8182C186.152 41.0303 191 52.7879 191 67.0909C191 92.5455 178.394 113.636 153.182 130.364L157.909 135.091C167.697 144.879 173.61 156.869 175.649 171.063C178.677 166.365 182.117 161.746 185.97 157.207C203.951 136.025 224.887 124.079 248.778 121.369C249.025 121.123 266.266 121 300.502 121H332V148.34H328.581C326.118 148.34 324.394 148.217 323.409 147.97H301.241L303.089 151.665C307.522 161.025 309.739 171.493 309.739 183.069C309.739 210.163 299.887 233.808 280.182 254.005C260.478 274.202 238.926 284.301 215.527 284.301C198.778 284.301 185.232 278.759 174.887 267.675C166.581 258.776 161.53 248.051 159.734 235.5C155.725 240.906 150.996 245.982 145.545 250.727C124.939 268.667 101.788 277.758 76.0909 278C68.8182 278 62.2727 277.03 56.4546 275.091C50.6364 273.152 46.0303 270.848 42.6364 268.182C39.2424 265.515 36.5758 262.727 34.6364 259.818C32.697 256.909 31.2424 254.606 30.2727 252.909C29.303 251.212 28.697 250.485 28.4546 250.727L14.8035 304.692ZM137.909 122C129.424 119.091 120.455 117.636 111 117.636C92.0909 117.636 80.9394 121.03 77.5455 127.818C76.8182 129.515 76.4546 131.212 76.4546 132.909C76.4546 140.424 86.0303 144.182 105.182 144.182H108.818C116.818 144.182 125.909 142.485 136.091 139.091C144.576 147.576 148.818 158.848 148.818 172.909C148.818 178.242 147.848 186.121 145.909 196.545C143.97 206.97 141.061 216.303 137.182 224.545C130.152 239.333 120.939 249.758 109.545 255.818C98.1515 261.879 87.3636 264.909 77.1818 264.909C63.6061 264.909 53.0606 259.818 45.5455 249.636C40.2121 242.121 37.5455 232.545 37.5455 220.909C37.5455 217.03 37.6667 214.485 37.9091 213.273C38.1515 211.091 42.2727 194.121 50.2727 162.364C58.2727 130.606 62.8788 112.788 64.0909 108.909C66.0303 102.121 68.8182 94.9697 72.4546 87.4545C76.0909 79.9394 80.8182 71.697 86.6364 62.7273C92.4546 53.7576 99.8485 46.3636 108.818 40.5455C117.788 34.7273 127.364 31.8182 137.545 31.8182C152.333 31.8182 161.545 38 165.182 50.3636C165.424 51.5758 165.545 54.3636 165.545 58.7273C165.545 64.5455 165.303 68.5455 164.818 70.7273C163.606 75.5758 162.636 79.9394 161.909 83.8182C161.182 87.697 160.091 91.2121 158.636 94.3636C157.182 97.5152 155.727 100.424 154.273 103.091C152.818 105.758 151.485 107.939 150.273 109.636C149.061 111.333 147.606 113.03 145.909 114.727L142.273 118.364L139.727 120.909L137.909 122ZM249.517 147.97C270.453 147.97 280.921 157.823 280.921 177.527C280.675 181.222 280.059 186.764 279.074 194.153C278.089 201.542 275.379 211.394 270.946 223.709C266.512 236.025 260.724 245.877 253.581 253.266C242.498 264.842 230.305 270.631 217.005 270.631C209.123 270.384 202.103 267.798 195.946 262.872C189.788 257.946 186.709 249.325 186.709 237.01C186.709 231.099 187.695 223.586 189.665 214.473C189.665 213.98 189.788 213.241 190.034 212.256C199.148 169.399 218.975 147.97 249.517 147.97Z" fill="white"/>
</g>
<defs>
<filter id="filter0_d_9_37" x="0" y="0" width="336" height="330" filterUnits="userSpaceOnUse" color-interpolation-filters="sRGB">
<feFlood flood-opacity="0" result="BackgroundImageFix"/>
<feColorMatrix in="SourceAlpha" type="matrix" values="0 0 0 0 0 0 0 0 0 0 0 0 0 0 0 0 0 0 127 0" result="hardAlpha"/>
<feOffset dy="4"/>
<feGaussianBlur stdDeviation="2"/>
<feComposite in2="hardAlpha" operator="out"/>
<feColorMatrix type="matrix" values="0 0 0 0 0 0 0 0 0 0 0 0 0 0 0 0 0 0 0.25 0"/>
<feBlend mode="normal" in2="BackgroundImageFix" result="effect1_dropShadow_9_37"/>
<feBlend mode="normal" in="SourceGraphic" in2="effect1_dropShadow_9_37" result="shape"/>
</filter>
<filter id="filter1_d_9_37" x="1.17706" y="18" width="334.823" height="294.692" filterUnits="userSpaceOnUse" color-interpolation-filters="sRGB">
<feFlood flood-opacity="0" result="BackgroundImageFix"/>
<feColorMatrix in="SourceAlpha" type="matrix" values="0 0 0 0 0 0 0 0 0 0 0 0 0 0 0 0 0 0 127 0" result="hardAlpha"/>
<feOffset dy="4"/>
<feGaussianBlur stdDeviation="2"/>
<feComposite in2="hardAlpha" operator="out"/>
<feColorMatrix type="matrix" values="0 0 0 0 0 0 0 0 0 0 0 0 0 0 0 0 0 0 0.25 0"/>
<feBlend mode="normal" in2="BackgroundImageFix" result="effect1_dropShadow_9_37"/>
<feBlend mode="normal" in="SourceGraphic" in2="effect1_dropShadow_9_37" result="shape"/>
</filter>
</defs>
</svg>
